<?xml version="1.0" standalone="no"?>
<!DOCTYPE svg PUBLIC "-//W3C//DTD SVG 20010904//EN"
 "http://www.w3.org/TR/2001/REC-SVG-20010904/DTD/svg10.dtd">
<svg version="1.0" xmlns="http://www.w3.org/2000/svg"
 width="512.000000pt" height="512.000000pt" viewBox="0 0 512.000000 512.000000"
 preserveAspectRatio="xMidYMid meet">
<metadata>
Created by potrace 1.14, written by Peter Selinger 2001-2017
</metadata>
<g transform="translate(0.000000,512.000000) scale(0.100000,-0.100000)"
fill="#000000" stroke="none">
<path d="M2980 4533 c-1104 -151 -1200 -166 -1255 -192 -103 -48 -189 -155
-221 -275 -11 -42 -14 -255 -14 -1176 l0 -1125 -137 0 c-159 0 -214 -13 -360
-80 -381 -177 -617 -536 -563 -854 30 -178 155 -323 330 -383 57 -20 85 -23
220 -23 148 0 159 2 247 32 292 102 512 290 628 536 68 143 65 91 65 1154 0
530 3 963 8 963 10 0 2247 298 2295 306 l37 6 0 -716 0 -716 -100 0 c-110 0
-168 -10 -281 -46 -320 -104 -590 -370 -665 -656 -12 -47 -15 -93 -12 -179 4
-108 6 -120 41 -193 66 -138 189 -233 353 -272 84 -20 267 -14 358 11 299 83
579 318 688 577 60 142 58 88 58 1643 0 1016 -3 1439 -11 1477 -42 199 -241
351 -454 347 -33 -1 -598 -75 -1255 -166z"/>
</g>
</svg>
